<?xml version="1.0" encoding="UTF-8"?>
<svg width="122px" height="35px" viewBox="0 0 122 35" version="1.1" xmlns="http://www.w3.org/2000/svg" xmlns:xlink="http://www.w3.org/1999/xlink">
    <!-- Generator: Sketch 61.2 (89653) - https://sketch.com -->
    <title>Oxford_Logo_RGB_White</title>
    <desc>Created with Sketch.</desc>
    <defs>
        <polygon id="path-1" points="0.00635761589 0.00871111111 15.9504106 0.00871111111 15.9504106 14 0.00635761589 14"></polygon>
    </defs>
    <g id="Symbols" stroke="none" stroke-width="1" fill="none" fill-rule="evenodd">
        <g id="Footer" transform="translate(-1157.000000, -405.000000)">
            <g id="Oxford_Logo_RGB_White" transform="translate(1157.000000, 405.000000)">
                <g id="Group-3" transform="translate(0.000000, 21.000000)">
                    <mask id="mask-2" fill="white">
                        <use xlink:href="#path-1"></use>
                    </mask>
                    <g id="Clip-2"></g>
                    <path d="M7.9845298,14 C2.87989404,14 0,10.4828889 0,7.0056 C0,3.70699259 2.73621192,0.00871111111 7.9845298,0.00871111111 C13.2328477,0.00871111111 15.9504106,3.72607407 15.9504106,7.0056 C15.9504106,10.5036296 12.989351,14 7.9845298,14 M7.9845298,2.84801481 C5.32948344,2.84801481 3.57329801,4.50561481 3.57329801,7.0056 C3.57329801,9.5030963 5.32948344,11.1623556 7.9845298,11.1623556 C10.6192318,11.1623556 12.3755232,9.5030963 12.3755232,7.0056 C12.3755232,4.50561481 10.6192318,2.84801481 7.9845298,2.84801481" id="Fill-1" fill="#FFFFFF" mask="url(#mask-2)"></path>
                </g>
                <polyline id="Fill-4" fill="#FFFFFF" points="34.1233602 21 30.9397557 25.1247518 27.696165 21 23.3188251 21 28.7507243 27.7535928 23 35 27.3187992 35 30.9397557 30.3814751 34.6201821 35 39 35 33.1099962 27.7535928 38.4240913 21 34.1233602 21"></polyline>
                <polyline id="Fill-5" fill="#FFFFFF" points="47 21 47 35 50.2541862 35 50.2541862 29.2528054 56 29.2528054 56 26.6859523 50.2541862 26.6859523 50.2541862 23.5658945 56 23.5658945 56 21 47 21"></polyline>
                <path d="M72.0114799,35 C66.8881507,35 64,31.4806991 64,28.0012452 C64,24.7005841 66.7448646,21 72.0114799,21 C77.2755441,21 80,24.7196774 80,28.0012452 C80,31.5014528 77.030427,35 72.0114799,35 M72.0114799,23.8410715 C69.3471872,23.8410715 67.5854482,25.4997035 67.5854482,28.0012452 C67.5854482,30.5002965 69.3471872,32.1605888 72.0114799,32.1605888 C74.6536632,32.1605888 76.4154022,30.5002965 76.4154022,28.0012452 C76.4154022,25.4997035 74.6536632,23.8410715 72.0114799,23.8410715" id="Fill-6" fill="#FFFFFF"></path>
                <path d="M94.1197439,21 C96.9297676,21 98.5966021,22.9276813 98.5966021,25.0218341 C98.5966021,26.5627862 97.8138938,27.7110448 96.2484772,28.4521248 C97.651771,29.1694536 98.0738941,30.8930664 100,35 L96.2484772,35 C94.7818753,32.0022367 94.2410496,29.3131324 92.3947035,29.3131324 L91.4100967,29.3131324 L91.4100967,35 L88,35 L88,21 L94.1197439,21 Z M91.4100967,26.7471509 L93.2172917,26.7471509 C94.1603526,26.7471509 95.0834216,26.3366706 95.0834216,25.1477261 C95.0834216,24.0988391 94.4212901,23.5659815 93.1375319,23.5659815 L91.4100967,23.5659815 L91.4100967,26.7471509 L91.4100967,26.7471509 Z" id="Fill-7" fill="#FFFFFF"></path>
                <path d="M114.214723,21 C119.355984,21 122,24.182128 122,28.0195974 C122,32.0430291 119.439547,35 113.82262,35 L108,35 L108,21 L114.214723,21 Z M111.510713,32.4340185 L113.804408,32.4340185 C117.333333,32.4340185 118.387511,30.0533603 118.387511,28 C118.387511,25.5971882 117.085859,23.5659815 113.762626,23.5659815 L111.510713,23.5659815 L111.510713,32.4340185 L111.510713,32.4340185 Z" id="Fill-8" fill="#FFFFFF"></path>
                <polygon id="Fill-9" fill="#FFFFFF" points="19 35 20 35 20 11 19 11"></polygon>
                <polygon id="Fill-10" fill="#FFFFFF" points="41 35 42 35 42 6 41 6"></polygon>
                <polygon id="Fill-11" fill="#FFFFFF" points="60 35 61 35 61 16 60 16"></polygon>
                <polygon id="Fill-12" fill="#FFFFFF" points="82 35 83 35 83 0 82 0"></polygon>
                <polygon id="Fill-13" fill="#FFFFFF" points="103 35 104 35 104 13 103 13"></polygon>
            </g>
        </g>
    </g>
</svg>